<svg width="759" height="108" viewBox="0 0 759 108" fill="none" xmlns="http://www.w3.org/2000/svg">
<path d="M713.958 53.5464C713.958 48.4594 716.008 44.3026 720.108 41.0758C724.245 37.811 729.56 36.1786 736.052 36.1786C742.164 36.1786 747.251 37.811 751.312 41.0758C755.374 44.3405 757.519 48.4784 757.747 53.4894H748.295C747.953 50.6043 746.662 48.3455 744.422 46.7132C742.221 45.0808 739.316 44.2646 735.71 44.2646C732.104 44.2646 729.2 45.0808 726.998 46.7132C724.796 48.3076 723.695 50.4145 723.695 53.0339C723.695 57.0579 726.979 59.905 733.546 61.5754L742.714 63.7962C748.674 65.3146 752.869 67.2887 755.299 69.7183C757.766 72.1099 759 75.4885 759 79.8542C759 85.017 756.798 89.2498 752.394 92.5525C747.991 95.8173 742.334 97.4496 735.425 97.4496C728.972 97.4496 723.638 95.8552 719.424 92.6664C715.248 89.4396 712.895 85.1879 712.363 79.9111H722.271C723.372 86.2128 727.966 89.3637 736.052 89.3637C740.038 89.3637 743.189 88.5855 745.504 87.029C747.858 85.4346 749.035 83.2897 749.035 80.5944C749.035 78.4685 748.332 76.7792 746.928 75.5265C745.561 74.2737 743.227 73.2108 739.924 72.3376L729.503 69.6613C719.14 67.004 713.958 61.6323 713.958 53.5464Z" fill="#474747"/>
<path d="M705.758 56.6213H696.078C695.318 53.2047 693.629 50.3955 691.01 48.1937C688.428 45.9919 685.069 44.891 680.931 44.891C675.768 44.891 671.611 46.884 668.46 50.87C665.309 54.8181 663.734 60.1328 663.734 66.8141C663.734 73.6094 665.309 78.962 668.46 82.8722C671.649 86.7823 675.844 88.7373 681.045 88.7373C685.031 88.7373 688.314 87.7503 690.896 85.7763C693.515 83.7643 695.261 80.9551 696.134 77.3487H705.872C705.113 83.2708 702.436 88.1109 697.843 91.8692C693.287 95.5895 687.669 97.4496 680.988 97.4496C672.712 97.4496 666.087 94.7164 661.114 89.2498C656.141 83.7453 653.655 76.2667 653.655 66.8141C653.655 57.5134 656.141 50.0918 661.114 44.5493C666.087 38.9689 672.674 36.1786 680.874 36.1786C687.935 36.1786 693.667 38.1717 698.071 42.1577C702.512 46.1437 705.075 50.9649 705.758 56.6213Z" fill="#474747"/>
<path d="M619.147 97.4496C610.872 97.4496 604.228 94.6974 599.217 89.1929C594.206 83.6504 591.701 76.1908 591.701 66.8141C591.701 57.4375 594.206 49.9969 599.217 44.4924C604.228 38.9499 610.872 36.1786 619.147 36.1786C627.385 36.1786 634.01 38.9499 639.021 44.4924C644.032 49.9969 646.537 57.4375 646.537 66.8141C646.537 76.1528 644.032 83.5934 639.021 89.1359C634.01 94.6784 627.385 97.4496 619.147 97.4496ZM606.449 82.9291C609.6 86.8012 613.833 88.7373 619.147 88.7373C624.462 88.7373 628.676 86.8202 631.789 82.986C634.902 79.1139 636.458 73.7233 636.458 66.8141C636.458 59.905 634.902 54.5334 631.789 50.6992C628.676 46.827 624.462 44.891 619.147 44.891C613.833 44.891 609.6 46.827 606.449 50.6992C603.336 54.5713 601.78 59.943 601.78 66.8141C601.78 73.6853 603.336 79.057 606.449 82.9291Z" fill="#474747"/>
<path d="M552.467 97.4496C544.874 97.4496 538.743 94.6594 534.074 89.0789C529.443 83.4985 527.127 76.0769 527.127 66.8141C527.127 57.5893 529.443 50.1867 534.074 44.6062C538.705 38.9878 544.76 36.1786 552.239 36.1786C556.415 36.1786 560.154 37.1277 563.457 39.0258C566.759 40.9239 569.303 43.5243 571.087 46.827H571.315V14.2554H581.223V96.4246H571.771V86.4026H571.6C569.664 89.8572 567.044 92.5715 563.741 94.5455C560.439 96.4816 556.681 97.4496 552.467 97.4496ZM554.346 44.8909C549.107 44.8909 544.95 46.8839 541.875 50.87C538.8 54.818 537.263 60.1328 537.263 66.8141C537.263 73.5334 538.8 78.8671 541.875 82.8152C544.95 86.7632 549.107 88.7373 554.346 88.7373C559.471 88.7373 563.59 86.7443 566.703 82.7582C569.815 78.7342 571.372 73.4195 571.372 66.8141C571.372 60.2087 569.796 54.9129 566.646 50.9269C563.533 46.9029 559.433 44.8909 554.346 44.8909Z" fill="#474747"/>
<path d="M489.032 89.2498C483.755 94.8303 476.656 97.6205 467.735 97.6205C458.814 97.6205 451.715 94.8303 446.438 89.2498C441.161 83.6314 438.523 75.963 438.523 66.2447C438.523 56.5644 441.18 48.915 446.495 43.2966C451.81 37.6402 458.89 34.812 467.735 34.812C476.618 34.812 483.698 37.6402 488.975 43.2966C494.289 48.915 496.947 56.5644 496.947 66.2447C496.947 75.963 494.308 83.6314 489.032 89.2498ZM456.916 81.1069C459.573 84.6374 463.179 86.4026 467.735 86.4026C472.29 86.4026 475.897 84.6374 478.554 81.1069C481.211 77.5764 482.54 72.6224 482.54 66.2447C482.54 59.905 481.211 54.9699 478.554 51.4395C475.897 47.871 472.29 46.0868 467.735 46.0868C463.217 46.0868 459.611 47.871 456.916 51.4395C454.258 54.9699 452.93 59.905 452.93 66.2447C452.93 72.6224 454.258 77.5764 456.916 81.1069Z" fill="#1E1E1E"/>
<path d="M404.073 45.8021C400.124 45.8021 396.822 47.1687 394.164 49.902C391.545 52.5973 390.083 56.0708 389.78 60.3226H417.967C417.815 56.0329 416.467 52.5404 413.924 49.845C411.38 47.1497 408.097 45.8021 404.073 45.8021ZM418.024 78.3736H431.291C430.38 84.1059 427.476 88.7563 422.579 92.3247C417.682 95.8552 411.684 97.6205 404.585 97.6205C395.55 97.6205 388.451 94.8492 383.288 89.3068C378.125 83.7263 375.544 76.1149 375.544 66.4725C375.544 56.906 378.106 49.2376 383.231 43.4674C388.394 37.6971 395.322 34.812 404.016 34.812C412.557 34.812 419.333 37.5643 424.344 43.0688C429.355 48.5353 431.861 55.8621 431.861 65.0489V69.6613H389.666V70.5155C389.666 75.3746 391.033 79.2847 393.766 82.2458C396.537 85.2068 400.238 86.6874 404.87 86.6874C408.134 86.6874 410.944 85.9471 413.297 84.4666C415.689 82.9481 417.264 80.9171 418.024 78.3736Z" fill="#1E1E1E"/>
<path d="M335.171 61.2337L357.891 36.0647H374.234L350.09 62.0309L375.259 96.4246H358.859L339.783 70.6293L335 75.4695V96.4246H320.821V14.2554H335V61.2337H335.171Z" fill="#1E1E1E"/>
<path d="M311.881 57.5893H298.499C297.892 54.2107 296.449 51.4964 294.172 49.4464C291.894 47.3585 288.933 46.3146 285.288 46.3146C280.809 46.3146 277.24 48.0988 274.583 51.6672C271.926 55.1977 270.597 60.0569 270.597 66.2447C270.597 72.5085 271.926 77.4056 274.583 80.9361C277.24 84.4286 280.847 86.1749 285.402 86.1749C288.971 86.1749 291.894 85.2258 294.172 83.3277C296.449 81.3916 297.911 78.6963 298.556 75.2418H311.938C311.368 81.999 308.654 87.4276 303.795 91.5275C298.974 95.5895 292.786 97.6205 285.232 97.6205C276.348 97.6205 269.287 94.8303 264.049 89.2498C258.81 83.6314 256.19 75.963 256.19 66.2447C256.19 56.6403 258.81 49.0099 264.049 43.3535C269.287 37.6592 276.31 34.812 285.118 34.812C292.862 34.812 299.126 36.9759 303.909 41.3035C308.73 45.5933 311.387 51.0219 311.881 57.5893Z" fill="#1E1E1E"/>
<path d="M232.616 96.4247V36.0648H246.795V96.4247H232.616ZM245.257 25.9289C243.739 27.4094 241.879 28.1497 239.677 28.1497C237.475 28.1497 235.615 27.4094 234.097 25.9289C232.578 24.4104 231.819 22.5882 231.819 20.4623C231.819 18.2985 232.578 16.4763 234.097 14.9957C235.615 13.4773 237.475 12.718 239.677 12.718C241.879 12.718 243.739 13.4773 245.257 14.9957C246.814 16.4763 247.592 18.2985 247.592 20.4623C247.592 22.5882 246.814 24.4104 245.257 25.9289Z" fill="#1E1E1E"/>
<path d="M206.023 96.4246V14.2554H220.202V96.4246H206.023Z" fill="#1E1E1E"/>
<path d="M197.084 57.5893H183.702C183.095 54.2107 181.652 51.4964 179.374 49.4464C177.097 47.3585 174.135 46.3146 170.491 46.3146C166.012 46.3146 162.443 48.0988 159.786 51.6672C157.128 55.1977 155.8 60.0569 155.8 66.2447C155.8 72.5085 157.128 77.4056 159.786 80.9361C162.443 84.4286 166.05 86.1749 170.605 86.1749C174.173 86.1749 177.097 85.2258 179.374 83.3277C181.652 81.3916 183.114 78.6963 183.759 75.2418H197.141C196.571 81.999 193.857 87.4276 188.998 91.5275C184.176 95.5895 177.989 97.6205 170.434 97.6205C161.551 97.6205 154.49 94.8303 149.251 89.2498C144.012 83.6314 141.393 75.963 141.393 66.2447C141.393 56.6403 144.012 49.0099 149.251 43.3535C154.49 37.6592 161.513 34.812 170.32 34.812C178.065 34.812 184.328 36.9759 189.112 41.3035C193.933 45.5933 196.59 51.0219 197.084 57.5893Z" fill="#1E1E1E"/>
<path fill-rule="evenodd" clip-rule="evenodd" d="M53.4785 107.702C24.2169 107.359 0.601561 83.5323 0.60156 54.1896C0.601559 24.8468 24.2169 1.01973 53.4785 0.677336L53.4785 107.702ZM62.9491 107.706L66.1059 107.706L66.1059 0.673602L62.9491 0.673602L62.9491 107.706ZM59.7922 107.706L59.7922 0.673602L56.6354 0.673603L56.6354 107.706L59.7922 107.706ZM80.0118 107.706L75.5764 107.706L75.5764 0.673602L80.0118 0.673602C95.2671 0.673601 107.634 13.0405 107.634 28.2959L107.634 80.0833C107.634 95.3386 95.2671 107.706 80.0118 107.706ZM69.2627 0.673602L72.4196 0.673602L72.4196 107.706L69.2627 107.706L69.2627 0.673602Z" fill="url(#paint0_linear_608_183)"/>
<defs>
<linearGradient id="paint0_linear_608_183" x1="4.78687" y1="54.9695" x2="105.04" y2="58.4432" gradientUnits="userSpaceOnUse">
<stop stop-color="#6E84F8"/>
<stop offset="0.510406" stop-color="#3F52AE"/>
<stop offset="1" stop-color="#213080"/>
</linearGradient>
</defs>
</svg>
